#!OML:ASF F:\VICON\USERDATA\INSTALL\rory3\rory3.ASF
:FULLY-SPECIFIED
:DEGREES
3127
root 2.05415 18.2608 0.204272 -348.163 71.7159 -352.468
lowerback 7.56988 4.35462 -3.2229
upperback 2.75703 5.60367 -4.27897
thorax -1.24553 2.85707 -3.09532
lowerneck -11.4417 1.34622 -1.37499
upperneck 32.976 2.18763 3.94735
head 12.8015 1.67321 2.15953
rclavicle 2.98177e-015 -6.12257e-014
rhumerus 200.037 -220.33 -262.355
rradius 77.2715
rwrist 15.965
rhand -29.8179 1.08079
rfingers 7.12502
rthumb -3.14162 -28.8758
lclavicle 2.98177e-015 -6.12257e-014
lhumerus -7.80318 12.3942 83.0653
lradius 63.7237
lwrist 106.442
lhand -20.0092 20.3934
lfingers 7.12502
lthumb 6.33097 50.2788
rfemur -21.6314 22.9114 0.284213
rtibia 28.1791
rfoot -14.7967 -13.6852
rtoes -10.1974
lfemur -10.6561 -4.21127 -9.16049
ltibia 24.4839
lfoot -17.1504 17.7281
ltoes -8.77212
3128
root 2.05565 18.2624 0.217712 -348.115 71.7401 -352.621
lowerback 7.67344 4.40938 -3.04685
upperback 2.8157 5.68773 -4.31287
thorax -1.21907 2.90124 -3.24033
lowerneck -11.6192 1.41724 -1.17632
upperneck 32.8242 2.256 3.85158
head 12.7781 1.71041 2.09451
rclavicle -9.14409e-015 1.35174e-014
rhumerus 197.369 -219.399 -264.381
rradius 75.9266
rwrist 14.6216
rhand -30.5061 -0.0181412
rfingers 7.12502
rthumb -3.80623 -29.9639
lclavicle -9.14409e-015 1.35174e-014
lhumerus -8.06967 9.47371 83.6929
lradius 62.4794
lwrist 107.212
lhand -20.2756 21.0883
lfingers 7.12502
lthumb 6.07375 50.9812
rfemur -21.8387 22.8787 0.281863
rtibia 28.2215
rfoot -14.9074 -13.5825
rtoes -9.94289
lfemur -10.8081 -4.39757 -9.05985
ltibia 24.4377
lfoot -17.2167 17.9127
ltoes -8.69045
3129
root 2.05139 18.2611 0.231147 -348.154 71.9945 -352.567
lowerback 8.08344 4.15404 -3.11853
upperback 2.91335 5.32296 -4.02814
thorax -1.3903 2.71502 -2.90513
lowerneck -11.596 1.67854 -1.62202
upperneck 32.7137 2.80254 3.65196
head 12.7033 1.86597 2.16421
rclavicle -7.51406e-014 2.78299e-014
rhumerus 194.987 -219.315 -265.737
rradius 74.5697
rwrist 12.8058
rhand -30.7577 -0.621034
rfingers 7.12502
rthumb -4.04916 -30.5623
lclavicle -7.51406e-014 2.78299e-014
lhumerus -8.52135 7.64353 84.3987
lradius 61.3998
lwrist 107.422
lhand -21.0515 24.4279
lfingers 7.12502
lthumb 5.32464 54.341
rfemur -21.613 22.744 0.4525
rtibia 28.2536
rfoot -14.9185 -13.6863
rtoes -10.2691
lfemur -10.7585 -4.77261 -8.98904
ltibia 24.4133
lfoot -17.2543 18.0096
ltoes -8.616
3130
root 2.05548 18.2604 0.246844 -347.995 71.9542 -352.694
lowerback 7.97099 4.05426 -3.21897
upperback 2.87547 5.18366 -3.86149
thorax -1.39601 2.6411 -2.65738
lowerneck -11.611 1.83858 -1.87718
upperneck 32.7671 3.17692 3.42475
head 12.716 1.96945 2.17408
rclavicle -4.77083e-014 9.54166e-015
rhumerus 192.604 -218.983 -266.859
rradius 73.2275
rwrist 10.9555
rhand -31.4733 -1.98077
rfingers 7.12502
rthumb -4.74016 -31.9077
lclavicle -4.77083e-014 9.54166e-015
lhumerus -8.96248 5.75578 84.9811
lradius 60.4612
lwrist 107.301
lhand -22.3673 28.121
lfingers 7.12502
lthumb 4.05405 58.0622
rfemur -21.897 22.5606 0.465741
rtibia 28.259
rfoot -14.7941 -13.6929
rtoes -10.5686
lfemur -11.0244 -4.72392 -8.8834
ltibia 24.4338
lfoot -17.3222 18.0716
ltoes -8.4974
3131
root 2.05609 18.2613 0.260797 -348.067 72.0204 -352.945
lowerback 8.07485 4.04906 -3.1544
upperback 2.84345 5.17281 -3.85024
thorax -1.48226 2.63561 -2.69058
lowerneck -11.6801 1.85896 -1.65743
upperneck 32.8341 3.25957 3.10707
head 12.7688 1.99134 2.02902
rclavicle 4.37326e-015 1.11319e-014
rhumerus 190.381 -217.934 -267.935
rradius 71.6909
rwrist 9.34031
rhand -32.0157 -3.41606
rfingers 7.12502
rthumb -5.26389 -33.3307
lclavicle 4.37326e-015 1.11319e-014
lhumerus -9.28461 3.19881 85.6173
lradius 59.4887
lwrist 107.372
lhand -23.4435 30.7801
lfingers 7.12502
lthumb 3.01477 60.7385
rfemur -22.0359 22.4114 0.562091
rtibia 28.2589
rfoot -14.7689 -13.6588
rtoes -10.5477
lfemur -11.2373 -4.73958 -8.7289
ltibia 24.4795
lfoot -17.2454 18.0756
ltoes -8.61197
